<svg xmlns="http://www.w3.org/2000/svg" xmlns:xlink="http://www.w3.org/1999/xlink" width="428" height="428" viewBox="0 0 428 428"><defs><clipPath id="a"><circle cx="214" cy="214" r="214" transform="translate(845 594)" fill="#fff" stroke="#fce100" stroke-width="8"></circle></clipPath><clipPath id="b"><rect width="612.211" height="541.864" transform="translate(0 -135)" fill="none"></rect></clipPath><clipPath id="c"><rect width="612.211" height="610.634" fill="none"></rect></clipPath><clipPath id="d"><rect width="612.211" height="540.425" transform="translate(0 -133.562)" fill="none"></rect></clipPath><linearGradient id="e" x1="0.5" x2="0.5" y2="1" gradientUnits="objectBoundingBox"><stop offset="0" stop-color="#577fff"></stop><stop offset="0.016" stop-color="#5c81fc"></stop><stop offset="0.189" stop-color="#8b92dd"></stop><stop offset="0.361" stop-color="#b2a0c4"></stop><stop offset="0.53" stop-color="#d1abb0"></stop><stop offset="0.695" stop-color="#e6b3a2"></stop><stop offset="0.854" stop-color="#f4b79a"></stop><stop offset="1" stop-color="#f8b997"></stop></linearGradient><linearGradient id="f" x1="0.674" y1="-1.48" x2="0.5" y2="1" gradientUnits="objectBoundingBox"><stop offset="0" stop-color="#577fff"></stop><stop offset="0.189" stop-color="#8b92dd"></stop><stop offset="0.361" stop-color="#b2a0c4"></stop><stop offset="0.53" stop-color="#d1abb0"></stop><stop offset="0.695" stop-color="#e6b3a2"></stop><stop offset="0.854" stop-color="#f4b79a"></stop><stop offset="1" stop-color="#f8b997"></stop></linearGradient></defs><g transform="translate(-937 -415)"><circle cx="214" cy="214" r="214" transform="translate(937 415)" fill="#c9effb"></circle><g transform="translate(92 -179)" clip-path="url(#a)"><g transform="translate(752.267 612.048)"><rect width="612.211" height="406.864" transform="translate(0 112.395)" fill="#c9effb"></rect><g transform="translate(0 112.395)" clip-path="url(#b)"><g transform="translate(0 -130.465)" clip-path="url(#c)"><path d="M0,0,529.632-18.976l-2.9,86.913L-2.9,86.913Z" transform="translate(-92.95 207.48) rotate(-22.383)" fill="none" stroke="#676239" stroke-width="3"></path><path d="M0,0,109.471-3.922,96.285,390.7-13.186,394.62Z" transform="translate(303.631 -72.298) rotate(-22.383)" fill="none" stroke="#676239" stroke-width="3"></path><path d="M0,0,274.336-9.829l-1.386,41.487L-1.386,41.487Z" transform="translate(349.435 238.288) rotate(-22.383)" fill="none" stroke="#676239" stroke-width="3"></path><path d="M0,0,76.151-2.728,72.236,114.419l-76.151,2.728Z" transform="translate(115.946 261.424) rotate(-22.383)" fill="none" stroke="#676239" stroke-width="3"></path><path d="M0,0,196.511-7.041,191.58,140.523-4.931,147.563Z" transform="translate(190.325 528.88) rotate(-22.383)" fill="none" stroke="#676239" stroke-width="3"></path><path d="M0,0,64.119-2.3,52.948,332.018l-64.119,2.3Z" transform="translate(-4.586 421.884) rotate(-22.383)" fill="none" stroke="#676239" stroke-width="3"></path><path d="M0,0,434.111-15.554l-2.746,82.166L-2.746,82.166Z" transform="translate(309.334 555.697) rotate(-22.383)" fill="none" stroke="#676239" stroke-width="3"></path><path d="M0,0,64.023-2.294,57.467,193.9l-64.023,2.294Z" transform="translate(170.152 -2.458) rotate(-22.383)" fill="none" stroke="#676239" stroke-width="3"></path><path d="M0,0,82.885-2.97,75.154,228.413l-82.885,2.97Z" transform="translate(562.683 289.859) rotate(-22.383)" fill="none" stroke="#676239" stroke-width="3"></path><path d="M0,0,88.4-3.167,83.019,157.811l-88.4,3.167Z" transform="translate(293.98 342.061) rotate(-22.383)" fill="none" stroke="#676239" stroke-width="3"></path><path d="M0,0,105.706-3.787l-3.334,99.777L-3.334,99.777Z" transform="translate(191.891 309.87) rotate(-22.383)" fill="none" stroke="#676239" stroke-width="3"></path><path d="M0,0,46.916-1.681,42.881,119.07l-46.916,1.681Z" transform="translate(-74.784 108.83) rotate(-22.383)" fill="none" stroke="#676239" stroke-width="1.074"></path></g></g><g transform="translate(0 112.395)" clip-path="url(#d)"><path d="M612.889,609.88l-.571.028L528.1,615.073l-2.126.128,1.641,26.664H150.035l1.641-26.664-4.836-.3-3.766-.228L64.749,609.88c26.622-133.051,50.062-208.807,50.062-208.807C121.616,360.2,153.117,347,153.117,347l108-33.612a38.849,38.849,0,0,0,13.211-7.148c.271-.214.542-.442.8-.671.185-.157.371-.314.542-.485A38.941,38.941,0,0,0,287.48,285.1v-.029c.1-.357.171-.728.243-1.1s.143-.713.2-1.07c.057-.271.1-.556.143-.842l.086-.556c.043-.271.071-.542.1-.813.043-.385.086-.756.114-1.127s.071-.742.086-1.1v-.057c.029-.314.043-.613.043-.927.014-.442.029-.885.029-1.327v-52.2h97.584v52.2a38.989,38.989,0,0,0,12.713,28.805c.227.213.456.413.7.612.271.243.542.471.827.7a38.784,38.784,0,0,0,13.182,7.119L521.51,347a59.784,59.784,0,0,1,17.206,12.255l.428.428c17.049,17.363,23.54,41.388,23.54,41.388h.157S586.281,476.829,612.889,609.88Z" transform="translate(-31.495 -122.439)" fill="#f8b997"></path><path d="M258.939,279.474c34.8-6.067,60.565-46.389,60.565-46.389s-34.516-2.842-56.1-9.131H221.917v52.2a38.971,38.971,0,0,1-1.051,8.946v.055S224.134,285.542,258.939,279.474Z" transform="translate(35.114 -122.438)" fill="#dd9176"></path><path d="M619.289,617.725H59.979l6.12-32.713c26.607-133.037,50.047-208.793,50.047-208.793,6.805-40.874,38.32-54.071,38.32-54.071l121.652-41.616,1.584.414,61.275,16.178,61.875-16.307,1.07-.285,120.939,41.616a60.188,60.188,0,0,1,17.89,12.968l.428.428c16.521,17.291,22.841,40.674,22.841,40.674h.157s23.454,75.756,50.062,208.793l.114.756Z" transform="translate(-33.53 -98.298)" fill="#ffcd27"></path><path d="M368.686,173.213a15.153,15.153,0,0,0-6.487.15c-7.569-52.257-38.975-91.446-76.585-91.446-37.715,0-69.2,39.4-76.654,91.879a15.434,15.434,0,0,0-7.909-.584c-11.646,2.315-18.3,18.214-14.861,35.51,3.318,16.691,14.822,28.543,26.088,27.274,11.059,40.962,25.939,72.457,54.461,77.75,7.667,1.423,14.479-3.091,20.577-3.091,6.035,0,13.329,5.187,18.381,3.368,30.588-11.012,43.173-37.119,53.591-77.933,10.658-.125,21.12-11.582,24.258-27.369C386.986,191.428,380.332,175.529,368.686,173.213Z" transform="translate(19.934 -183.04)" fill="url(#e)"></path><path d="M230.885,165.823c6.849,0,6.86-10.644,0-10.644S224.025,165.823,230.885,165.823Z" transform="translate(37.197 -151.782)" fill="#38101b"></path><path d="M281.616,165.823c6.849,0,6.86-10.644,0-10.644S274.756,165.823,281.616,165.823Z" transform="translate(58.842 -151.782)" fill="#38101b"></path><path d="M213.584,153.582a53.16,53.16,0,0,1,10.9-4.853c1.853-.617,3.722-1.148,5.6-1.627l2.757-.667q1.259-.29,2.49-.679a48.714,48.714,0,0,0,9.584-4.1c.784-.43,1.552-.9,2.333-1.373.81-.518,1.663-1.046,2.514-1.545a41.168,41.168,0,0,1,5.428-2.694,41.179,41.179,0,0,1-3.044,5.239c-.562.822-1.117,1.622-1.726,2.418a23.74,23.74,0,0,1-2.1,2.372,26.414,26.414,0,0,1-10.936,6.474c-1.035.288-2.075.559-3.134.743-1.092.177-1.951.3-2.945.415-1.925.227-3.86.4-5.811.492a53.159,53.159,0,0,1-11.919-.614Z" transform="translate(32.008 -159.947)" fill="#38101b"></path><path d="M309.551,153.216a53.162,53.162,0,0,1-11.91.774c-1.952-.064-3.889-.213-5.817-.414-.995-.1-1.856-.213-2.95-.376-1.06-.169-2.1-.427-3.143-.7a26.415,26.415,0,0,1-11.022-6.326,23.744,23.744,0,0,1-2.128-2.343c-.619-.788-1.185-1.581-1.758-2.395a41.168,41.168,0,0,1-3.114-5.2,41.174,41.174,0,0,1,5.464,2.621c.858.487,1.717,1,2.534,1.511.788.466,1.562.923,2.352,1.342a48.709,48.709,0,0,0,9.638,3.973q1.236.371,2.5.646l2.766.63c1.885.454,3.761.96,5.622,1.552A53.161,53.161,0,0,1,309.551,153.216Z" transform="translate(55.101 -159.864)" fill="#38101b"></path><ellipse cx="18.581" cy="7.458" rx="18.581" ry="7.458" transform="matrix(0.127, -0.992, 0.992, 0.127, 380.492, 38.127)" fill="#dd9176"></ellipse><ellipse cx="7.458" cy="18.581" rx="7.458" ry="18.581" transform="matrix(0.992, -0.127, 0.127, 0.992, 210.94, 3.155)" fill="#dd9176"></ellipse><path d="M202.442,146.32c.541,5.223.857,10.416,1.111,15.6l.667,15.536c.053,2.588.189,5.171.286,7.755l.317,7.75c.257,5.168.516,10.322.937,15.556a73.926,73.926,0,0,1-3.693-15.29,145.275,145.275,0,0,1-1.391-15.639c-.17-5.226-.165-10.452.118-15.67a124.618,124.618,0,0,1,1.647-15.6Z" transform="translate(26.452 -155.562)" fill="#dd9176"></path><path d="M310.591,146.32a124.618,124.618,0,0,1,1.647,15.6c.283,5.218.288,10.443.118,15.67a145.293,145.293,0,0,1-1.391,15.639,73.929,73.929,0,0,1-3.693,15.29c.421-5.234.681-10.388.937-15.556l.317-7.75c.1-2.584.233-5.166.286-7.755l.667-15.536C309.735,156.735,310.051,151.543,310.591,146.32Z" transform="translate(71.982 -155.562)" fill="#dd9176"></path><path d="M273.738,161.006a9.48,9.48,0,0,1,3.148-4.884A8.883,8.883,0,0,1,282.763,154a9.4,9.4,0,0,1,5.789,2.251,15.612,15.612,0,0,1,1.987,2.17,16.8,16.8,0,0,1,1.293,2.588,21.032,21.032,0,0,1-2.467-1.3c-.815-.36-1.557-.793-2.31-1.1a11.9,11.9,0,0,0-4.35-1.059,10.174,10.174,0,0,0-4.331.927,34.667,34.667,0,0,0-4.635,2.535Z" transform="translate(57.674 -152.287)" fill="#38101b"></path><path d="M223.007,161.006a9.48,9.48,0,0,1,3.148-4.884A8.882,8.882,0,0,1,232.032,154a9.4,9.4,0,0,1,5.789,2.251,15.607,15.607,0,0,1,1.987,2.17,16.8,16.8,0,0,1,1.293,2.588,21.024,21.024,0,0,1-2.467-1.3c-.815-.36-1.557-.793-2.31-1.1a11.9,11.9,0,0,0-4.35-1.059,10.173,10.173,0,0,0-4.331.927,34.655,34.655,0,0,0-4.635,2.535Z" transform="translate(36.029 -152.287)" fill="#38101b"></path><path d="M396.438,617.511H189.429l31.7-335.623.086-.856.713.185,62.146,16.421,62.245-16.421.7-.185.128.885Z" transform="translate(21.702 -98.085)" fill="#e8e9ea"></path><path d="M126.024,442.452l-2.012,79.223-.685,26.964h-5.079l2-27.192Z" transform="translate(-8.668 -29.212)" fill="#059445"></path><path d="M393.234,548.639h-5.079l-2.7-106.187,5.807,79.394Z" transform="translate(105.341 -29.212)" fill="#059445"></path><path d="M209.08,206.071s-2.845-95.079,38.1-88.255,97.454,21.949,102.068,36.619c4.336,13.788,10.53,54.531,10.53,54.531S381.486,176.835,378.8,157.3c-11.826-86-121.872-94.561-131.62-74.089,0,0-55.568,21.447-54.593,63.367S209.08,206.071,209.08,206.071Z" transform="translate(23.044 -186.461)" fill="#38101b"></path><path d="M355.974,156.307s-1.736,46.2-5.651,54.552c-3.974,8.481-12.122,15.449-21.66,19.925-5.348,2.51-11.485-.4-13.868-6.39l-2.649-6.657a10.7,10.7,0,0,0-9.566-7.119l-18.653-.294-23.975.295a10.7,10.7,0,0,0-9.566,7.119l-2.649,6.657c-2.383,5.989-8.52,8.9-13.868,6.39-9.538-4.476-17.686-11.445-21.66-19.925-3.914-8.352-5.651-54.552-5.651-54.552l-6.357-5.349c4.238,56.157.706,91.055,24.722,121.941,21.049,27.071,48.8,21.254,56.343,19.165A52.451,52.451,0,0,0,337.609,272.9c24.016-30.886,20.484-65.784,24.722-121.941Z" transform="translate(26.299 -153.583)" fill="#38101b"></path><path d="M296.714,211.832s-17.093-19.852-35.27-15.811-25.836,22.626-25.836,22.626Z" transform="translate(41.405 -134.588)" fill="#d7645d"></path><path d="M278.3,184.126a29.6,29.6,0,0,1-18.076,8.657c.213.035.426.053.639.071h-1.277c.213-.018.426-.035.639-.071a29.5,29.5,0,0,1-17.846-8.408Z" transform="translate(44.294 -139.431)" fill="#dd9176"></path></g><path d="M369.6,173.331a15.154,15.154,0,0,0-6.487.15c-7.569-52.257-38.975-91.446-76.585-91.446-37.715,0-69.2,39.4-76.654,91.879a15.434,15.434,0,0,0-7.909-.584c-11.646,2.315-18.3,18.214-14.861,35.51,3.318,16.691,14.822,28.543,26.088,27.274,11.059,40.962,25.939,72.457,54.461,77.75,7.667,1.423,14.479-3.091,20.577-3.091,6.035,0,13.329,5.187,18.381,3.368,30.588-11.012,43.173-37.119,53.591-77.933,10.658-.125,21.12-11.582,24.258-27.369C387.9,191.544,381.246,175.647,369.6,173.331Z" transform="translate(20.323 -70.595)" fill="url(#f)"></path><path d="M237.3,177.332c14.179,0,14.2-22.036,0-22.036C223.123,155.3,223.1,177.332,237.3,177.332Z" transform="translate(34.312 -44.13)" fill="#38101b"></path><path d="M288.032,177.332c14.179,0,14.2-22.036,0-22.036C273.853,155.3,273.829,177.332,288.032,177.332Z" transform="translate(51.502 -44.13)" fill="#38101b"></path><path d="M256.109,136.872a53.158,53.158,0,0,1-10.9,4.853c-1.853.617-3.722,1.148-5.6,1.627l-2.757.667q-1.26.29-2.49.679a48.715,48.715,0,0,0-9.584,4.1c-.784.43-1.552.9-2.333,1.373-.81.518-1.663,1.046-2.514,1.545a41.176,41.176,0,0,1-5.428,2.694,41.182,41.182,0,0,1,3.044-5.239c.562-.822,1.117-1.622,1.726-2.418a23.745,23.745,0,0,1,2.1-2.372,26.415,26.415,0,0,1,10.936-6.474c1.035-.288,2.075-.559,3.134-.743,1.092-.177,1.951-.3,2.945-.415,1.925-.227,3.86-.4,5.811-.492a53.159,53.159,0,0,1,11.919.614Z" transform="translate(32.398 -47.503)" fill="#38101b"></path><path d="M268.621,137.187a53.159,53.159,0,0,1,11.91-.774c1.952.064,3.889.213,5.817.414,1,.1,1.856.213,2.95.376,1.06.169,2.1.427,3.143.7a26.415,26.415,0,0,1,11.022,6.327,23.745,23.745,0,0,1,2.129,2.343c.619.788,1.185,1.581,1.758,2.395a41.166,41.166,0,0,1,3.114,5.2A41.167,41.167,0,0,1,305,151.546c-.858-.487-1.717-1-2.534-1.511-.788-.466-1.562-.923-2.352-1.342a48.708,48.708,0,0,0-9.638-3.973q-1.236-.371-2.5-.646l-2.766-.63c-1.885-.454-3.761-.96-5.622-1.552a53.161,53.161,0,0,1-10.968-4.706Z" transform="translate(55.491 -47.42)" fill="#38101b"></path><ellipse cx="18.581" cy="7.458" rx="18.581" ry="7.458" transform="matrix(0.127, -0.992, 0.992, 0.127, 381.794, 150.69)" fill="#dd9176"></ellipse><ellipse cx="7.458" cy="18.581" rx="7.458" ry="18.581" transform="matrix(0.992, -0.127, 0.127, 0.992, 212.244, 115.717)" fill="#dd9176"></ellipse><path d="M203.355,146.437c.541,5.223.857,10.416,1.111,15.6l.667,15.536c.053,2.588.189,5.171.286,7.755l.317,7.75c.257,5.168.516,10.322.937,15.556a73.927,73.927,0,0,1-3.693-15.29,145.292,145.292,0,0,1-1.391-15.639c-.17-5.226-.165-10.452.118-15.67a124.621,124.621,0,0,1,1.647-15.6Z" transform="translate(26.842 -43.117)" fill="#dd9176"></path><path d="M311.505,146.437a124.617,124.617,0,0,1,1.647,15.6c.283,5.218.288,10.443.118,15.67a145.293,145.293,0,0,1-1.391,15.639,73.929,73.929,0,0,1-3.693,15.29c.421-5.234.681-10.388.937-15.556l.317-7.75c.1-2.584.233-5.166.287-7.755l.667-15.536C310.648,156.853,310.963,151.66,311.505,146.437Z" transform="translate(72.372 -43.117)" fill="#dd9176"></path><path d="M274.651,168.626a19.628,19.628,0,0,1,6.517-10.112,18.389,18.389,0,0,1,12.167-4.4,19.466,19.466,0,0,1,11.985,4.661,32.33,32.33,0,0,1,4.114,4.492,34.807,34.807,0,0,1,2.678,5.358A43.544,43.544,0,0,1,307,165.934c-1.687-.745-3.223-1.641-4.783-2.283a24.642,24.642,0,0,0-9.006-2.193,21.064,21.064,0,0,0-8.968,1.92,71.756,71.756,0,0,0-9.6,5.249Z" transform="translate(46.153 -46.441)" fill="#38101b"></path><path d="M223.92,168.626a19.628,19.628,0,0,1,6.517-10.112,18.389,18.389,0,0,1,12.167-4.4,19.465,19.465,0,0,1,11.985,4.661,32.313,32.313,0,0,1,4.114,4.492,34.787,34.787,0,0,1,2.678,5.358,43.519,43.519,0,0,1-5.107-2.692c-1.687-.745-3.223-1.641-4.783-2.283a24.641,24.641,0,0,0-9.006-2.193,21.063,21.063,0,0,0-8.967,1.92,71.768,71.768,0,0,0-9.6,5.249Z" transform="translate(28.961 -46.441)" fill="#38101b"></path><path d="M209.993,206.188s-2.845-95.079,38.1-88.255,97.454,21.949,102.068,36.619c4.336,13.788,10.53,54.531,10.53,54.531s21.709-32.132,19.023-51.669c-11.826-86-121.872-94.561-131.62-74.089,0,0-55.568,21.447-54.593,63.367S209.993,206.188,209.993,206.188Z" transform="translate(23.434 -74.017)" fill="#38101b"></path><path d="M356.888,156.425s-1.736,46.2-5.651,54.552c-3.974,8.481-12.122,15.449-21.66,19.925-5.348,2.51-11.485-.4-13.868-6.39l-2.649-6.656a10.7,10.7,0,0,0-9.566-7.119l-18.653-.294-23.975.294a10.7,10.7,0,0,0-9.566,7.119l-2.649,6.656c-2.383,5.989-8.52,8.9-13.868,6.39-9.538-4.476-17.686-11.445-21.66-19.925-3.914-8.352-5.651-54.552-5.651-54.552l-6.357-5.349c4.238,56.157.706,91.055,24.722,121.941,21.049,27.071,48.8,21.254,56.343,19.165a52.451,52.451,0,0,0,56.343-19.165c24.016-30.886,20.484-65.784,24.722-121.941Z" transform="translate(26.688 -41.138)" fill="#38101b"></path><path d="M297.627,202.411s-17.093,19.852-35.27,15.811S236.521,195.6,236.521,195.6Z" transform="translate(41.794 -14.143)" fill="#d7645d"></path><path d="M279.214,184.243a29.6,29.6,0,0,1-18.076,8.657c.213.035.426.053.639.071H260.5c.213-.018.426-.035.639-.071a29.5,29.5,0,0,1-17.846-8.408Z" transform="translate(44.684 -26.987)" fill="#dd9176"></path></g></g></g></svg>